<svg xmlns="http://www.w3.org/2000/svg" xmlns:xlink="http://www.w3.org/1999/xlink" xmlns:v="http://vecta.io" width="1920" height="1080" viewBox="0 0 1920 1080"><style><![CDATA[svg{stroke:#000;stroke-linecap:round;stroke-linejoin:round;fill:#fff;fill-rule:evenodd;font-family:Roboto;font-size:14px;text-anchor:middle}svg text{paint-order:stroke;white-space:pre}svg .Text\.cls{stroke:none}]]></style><g transform="translate(79.499963522922 430.115005493164)"><g ><g transform="translate(1430.107108300514 0.847001370345)"><path d="M 260.971236742136 58.941657773959 L 290.121127443107 8.453213438092 C 290.946659873241 6.370325376404 290.579306051187 4.004015326178 289.160979705113 2.269018632395 C 287.743464294628 0.534021938611 285.49798364724 -0.297187040649 283.292238843739 0.096116720269 C 281.841475074084 0.360076254659 280.535057839363 1.1385744206 279.612213138487 2.288481086543 L 250.089292066336 53.560694669683 C 202.3924934974 32.159698994394 147.823015807261 32.159698994394 100.126217238325 53.560694669683 L 70.604107101764 2.408094085998 C 68.682189754596 0.052326198435 65.32978202751 -0.550604412375 62.708027266585 0.987334933154 C 60.085461570069 2.525679746478 58.976101683603 5.745904972472 60.094381861554 8.572826437547 L 89.244272562525 58.954632743391 C 38.092077446634 86.827299890864 4.510423748923 138.682576162871 0 196.760972148873 L 350.26903105357 196.760972148873 C 345.737522979319 138.674872274771 312.137217763049 86.821623341737 260.971236742136 58.954632743391 Z M 94.439936884594 146.857212373051 C 88.546867955535 146.838155386698 83.24172732888 143.281391891052 80.986515454418 137.837581278589 C 78.730492644367 132.393770666125 79.963925676031 126.127265898091 84.115915894385 121.945271062924 C 88.786093954444 117.282391423171 96.005042572372 116.335624122404 101.719705671737 119.63613197176 C 107.434368771101 122.936639821115 110.222365327878 129.662945068409 108.516967783113 136.038115205439 C 106.811570238347 142.413690810263 101.039330712127 146.85031942054 94.439936884594 146.857212373051 Z M 255.696100732294 146.857212373051 C 250.481784891665 146.866943600125 245.658340005186 144.093949351754 243.043072728976 139.582714667241 C 240.427805452767 135.071885450523 240.418074225693 129.508461838605 243.017122790112 124.987901394812 C 245.615360418941 120.46734095102 250.429074078346 117.676911587473 255.643389918975 117.667180360399 C 263.704089678827 117.652583519788 270.249961757451 124.174938466316 270.264558598062 132.235638226168 C 270.279155438674 140.296337986021 263.756800492146 146.84261553244 255.696100732294 146.857212373051 Z" fill="#00de7a" fill-rule="nonzero" stroke="none" stroke-linecap="butt" stroke-linejoin="miter"/></g><g transform="translate(2e-12 0)"><path d="M 104.300403634521 177.611923752776 C 96.235649196721 188.812566115258 80.385102163917 197.634734393672 62.688054793771 197.634734393672 C 27.797551054572 198.418503640945 -0.741705147489 166.690648700883 0.015708693125 130.03352177991 C -0.767655086353 93.363014421709 27.85107280348 61.622184512214 62.688054793771 62.405953759488 C 80.385102163917 62.405953759488 96.235649196721 71.254477444561 104.300403634521 82.441739369816 L 104.300403634521 0 L 132.919131524354 0 L 132.919131524354 195.030414747921 L 104.300403634521 195.030414747921 L 104.300403634521 177.625304190003 Z M 39.822103976009 159.675244915925 C 46.947795001142 167.629306645756 57.236945761002 172.009575232561 67.908858119116 171.633301119022 C 79.335751511075 171.633301119022 88.702057570058 167.727024384293 95.731247260038 159.675244915925 C 110.285108285196 142.593697658226 110.285108285196 117.473345901593 95.731247260038 100.391798643894 C 88.702057570058 92.313663768867 79.296015667189 88.420767471365 67.908858119116 88.420767471365 C 57.236945761002 88.044087890032 46.947795001142 92.424356476837 39.822103976009 100.378418206667 C 25.585318766355 117.580389399409 25.585318766355 142.473273723183 39.822103976009 159.675244915925 Z M 296.23507176944 137.048925564867 L 192.734551543113 137.048925564867 C 193.067035134817 146.641482653327 197.185776994001 155.70287693065 204.174419904505 162.266184124449 C 211.442024657804 169.042361910498 220.808330716787 172.403689929068 231.995998109838 172.403689929068 C 246.823144428664 172.403689929068 258.781200631761 166.425067295315 264.839700421083 154.201429686649 L 294.747004962667 154.201429686649 C 290.908846817458 166.915683326976 282.835172088173 177.933865181816 271.868079175473 185.424477222234 C 260.66743681299 193.46247078558 246.889641147005 197.634734393672 231.026119144769 197.634734393672 C 192.801048261454 197.634734393672 164.474257183848 168.763400067702 164.474257183848 130.03352177991 C 164.474257183848 91.290668522684 191.698175859703 62.405953759488 231.21182339477 62.405953759488 C 269.197668279176 62.405953759488 296.501058642804 90.759100243752 296.501058642804 131.322503899455 L 296.23507176944 137.048925564867 Z M 265.543592512788 116.77391395563 C 261.424850653604 96.737722877506 247.341332270369 86.348016104546 230.441434584724 86.348016104546 C 211.960212499509 86.348016104546 197.583946368456 97.269291156438 193.770927226522 116.77391395563 L 265.543592512788 116.77391395563 Z M 449.161305241566 65.009867937444 L 390.117084968443 195.043795185148 L 364.872660066613 195.043795185148 L 306.120376605718 65.009867937444 L 337.84823154578 65.009867937444 L 377.361879080846 156.021574617333 L 417.141513489276 65.009867937444 L 449.161305241566 65.009867937444 Z M 590.621720413435 137.048925564867 L 487.120389251518 137.048925564867 C 487.452872843222 146.641482653327 491.571614702406 155.70287693065 498.56025761291 162.266184124449 C 506.159535022324 169.135214035498 516.138097451396 172.762528927432 526.381835818242 172.403689929068 C 541.208982137069 172.403689929068 553.167038340166 166.425067295315 559.225538129488 154.201429686649 L 589.133653606662 154.201429686649 C 585.301982946169 166.919332537129 577.226686345705 177.939541730943 566.253916883878 185.424477222234 C 555.093821300871 193.46247078558 541.27547885541 197.634734393672 525.438717727628 197.634734393672 C 487.213646844313 197.634734393672 458.873880797275 168.763400067702 458.873880797275 130.03352177991 C 458.873880797275 91.290668522684 486.164296191471 62.405953759488 525.690918695969 62.405953759488 C 563.662977675354 62.405953759488 590.967178974572 90.759100243752 590.967178974572 131.322503899455 L 590.621720413435 137.048925564867 Z M 559.930241156783 116.77391395563 C 555.810688362009 96.737722877506 541.727169978774 86.348016104546 524.827272293128 86.348016104546 C 506.346050207914 86.348016104546 491.969784076862 97.269291156438 488.156764934927 116.77391395563 L 559.930241156783 116.77391395563 Z M 650.436329496604 0 L 650.436329496604 195.030414747921 L 621.844362481225 195.030414747921 L 621.844362481225 0 L 650.436329496604 0 Z M 749.52617105152 62.405953759488 C 786.80893477981 62.684104666694 816.833824981875 93.084458046708 816.648120731874 130.367627242793 C 816.463227417463 167.650796438878 786.138291047275 197.751103650769 748.854716383396 197.659062461358 C 711.571141719515 197.567021271947 681.394606562209 167.317096443789 681.39379562662 130.03352177991 C 681.295672420288 111.980068218168 688.459477418128 94.644698120949 701.272259732581 81.926389802675 C 714.085852982624 69.208081484401 731.473933893163 62.174026180884 749.52617105152 62.405953759488 Z M 749.52617105152 88.938955313069 C 726.381258390962 88.938955313069 710.264724484795 107.141215555488 710.264724484795 129.993785936023 C 710.264724484795 152.846356316558 726.36828342153 171.048616558976 749.52617105152 171.048616558976 C 772.113160026486 171.048616558976 788.535416649903 152.846356316558 788.535416649903 129.993785936023 C 788.535416649903 107.141215555488 772.152895870372 88.938955313069 749.52617105152 88.938955313069 Z M 876.955778653473 249.384994506836 L 848.337050763639 249.384994506836 L 848.337050763639 65.009867937444 L 876.955778653473 65.009867937444 L 876.955778653473 82.388623088703 C 885.007558121841 71.188386194015 901.13706699744 62.352837478374 918.808164428722 62.352837478374 C 953.710832201764 61.555687793873 982.263874308846 93.309898140595 981.49267456321 129.980405498796 C 982.263874308846 166.63753241977 953.671096357877 198.352006922605 918.808164428722 197.568237675331 C 901.13706699744 197.568237675331 885.007558121841 188.746069396917 876.955778653473 177.558807471662 L 876.955778653473 249.384994506836 Z M 913.626286011674 171.619920681795 C 936.21327498664 171.619920681795 952.355758831673 153.430635408808 952.355758831673 130.03352177991 C 952.355758831673 106.623027713783 936.240035861094 88.420767471365 913.626286011674 88.420767471365 C 890.999561192821 88.420767471365 874.61785134888 106.623027713783 874.61785134888 130.03352177991 C 874.61785134888 153.430635408808 890.733574319458 171.619920681795 913.626286011674 171.619920681795 Z M 1135.190107780971 137.048925564867 L 1031.688776619054 137.048925564867 C 1032.021260210758 146.641482653327 1036.140002069943 155.70287693065 1043.141619949878 162.266184124449 C 1050.409224703177 169.042361910498 1059.763366728318 172.403689929068 1070.950223185778 172.403689929068 C 1085.777369504606 172.403689929068 1097.748400677135 166.425067295315 1103.793925497024 154.201429686649 L 1133.715015943631 154.201429686649 C 1129.871181249294 166.91689973036 1121.793451842062 177.934676117405 1110.822304251414 185.424477222234 C 1099.635447793953 193.46247078558 1085.857652127968 197.634734393672 1069.993319190143 197.634734393672 C 1031.768248306827 197.634734393672 1003.42848225979 168.763400067702 1003.42848225979 130.03352177991 C 1003.42848225979 91.290668522684 1030.74565852844 62.405953759488 1070.259306063506 62.405953759488 C 1108.218390073458 62.405953759488 1135.535566342107 90.759100243752 1135.535566342107 131.322503899455 L 1135.190107780971 137.048925564867 Z M 1104.391585026502 116.77391395563 C 1100.286629072339 96.737722877506 1086.189324784083 86.348016104546 1069.289427098436 86.348016104546 C 1050.821179982655 86.348016104546 1036.445724787192 97.269291156438 1032.618919740236 116.77391395563 L 1104.391585026502 116.77391395563 Z M 1195.004716864141 65.009867937444 L 1195.004716864141 88.154780598001 C 1200.227952996254 73.643493691294 1213.914923876213 63.902535389951 1229.337296917748 63.721291285693 C 1233.083819341341 63.654794567352 1236.830341764936 63.986872691261 1240.497392500756 64.744286531875 L 1240.497392500756 94.147189136777 C 1235.856408121919 92.644120021597 1231.013500781291 91.855890628581 1226.134912274725 91.808450896594 C 1208.703040842352 91.808450896594 1194.925245176367 106.623027713783 1194.925245176367 131.588085305024 L 1194.925245176367 195.043795185148 L 1166.412749848762 195.043795185148 L 1166.412749848762 65.009867937444 L 1195.018502769162 65.009867937444 Z M 1284.727441424484 155.503386775628 C 1286.774242852438 168.763400067702 1297.721873310991 174.742022701456 1311.513454881997 174.742022701456 C 1324.24108895955 174.742022701456 1332.571830270712 169.560549752203 1332.571830270712 160.964227035471 C 1332.571830270712 152.381284755967 1326.858789042528 147.186025901692 1313.320219375453 143.811317445894 L 1292.008832082804 138.07192081105 C 1270.166281979021 132.624460988434 1258.713438648196 118.328072012949 1258.713438648196 98.823854681552 C 1258.713438648196 76.980899109973 1277.978024512888 62.419334196715 1307.075204400542 62.419334196715 C 1335.162769479237 62.419334196715 1354.680367247861 77.765073825041 1356.75311861468 101.414793890076 L 1328.147365694279 101.414793890076 C 1325.795652484665 91.024681649321 1317.226496110181 85.298259983909 1306.835978401632 85.298259983909 C 1295.649121944171 85.298259983909 1287.836568474712 90.240912402048 1287.836568474712 98.558273275984 C 1287.836568474712 106.875228682125 1293.815596576261 111.047492290217 1305.268439907085 114.156213872651 L 1327.11099001087 119.882635538064 C 1350.255902671427 125.861663639612 1361.682796063387 138.855690058323 1361.682796063387 159.144082104788 C 1361.682796063387 183.777061572119 1340.889596612444 197.634734393672 1310.729280166929 197.634734393672 C 1295.383135070808 197.634734393672 1282.389514119891 193.728457658943 1271.733820473567 186.208246469507 C 1261.6774082279 179.153917776252 1255.510243069583 167.792710167044 1255.072337851241 155.516767212855 L 1284.727441424484 155.516767212855 Z" fill-rule="nonzero" stroke="none" stroke-linecap="butt" stroke-linejoin="miter" fill="#000000" fill-opacity="1"/></g></g></g></svg>