<svg xmlns="http://www.w3.org/2000/svg" xmlns:xlink="http://www.w3.org/1999/xlink" xmlns:v="http://vecta.io" width="1920" height="1080" viewBox="0 0 1920 1080"><style><![CDATA[svg{stroke:#000;stroke-linecap:round;stroke-linejoin:round;fill:#fff;fill-rule:evenodd;font-family:Roboto;font-size:14px;text-anchor:middle}svg text{paint-order:stroke;white-space:pre}svg .Text\.cls{stroke:none}]]></style><g transform="translate(589.5 7.5)"><g ><g transform="translate(18.24946 397.069805)"><path d="M 210.496526658764 170.277751143511 C 210.496526658764 170.277751143511 176.554326658764 187.433866768511 234.108666658764 192.334658956011 C 303.469746658764 199.686515831011 340.363966658764 198.462989268511 417.103086658764 186.207665831011 C 417.103086658764 186.207665831011 437.764546658764 197.236788331011 465.802706658763 205.814846143511 C 293.139686658764 267.083440206011 74.725046658764 202.137580518511 210.496526658764 170.277751143511 L 210.496526658764 170.277751143511 Z M 188.359726658764 90.629514893511 C 188.359726658764 90.629514893511 151.465506658764 113.911286456011 209.019846658764 118.812078643511 C 284.284966658764 124.940408956011 343.314646658764 126.163935518511 445.143926658764 109.009157081011 C 445.143926658764 109.009157081011 458.424666658764 121.263143331011 480.561466658763 127.390136456011 C 272.478226658764 178.855808956011 39.307506658764 132.292265831011 188.361066658764 90.629514893511 L 188.359726658764 90.629514893511 Z M 595.671486658763 230.321481456011 C 595.671486658763 230.321481456011 620.758966658763 247.477597081011 567.631986658763 260.955109893511 C 468.754726658764 285.463082393511 152.939506658764 292.814939268511 64.392306658764 260.955109893511 C 33.402126658764 249.927324581011 92.433146658764 233.997409893511 111.617926658764 231.546345206011 C 130.802706658764 227.871753956011 141.132766658764 227.871753956011 141.132766658764 227.871753956011 C 107.191906658764 208.264573643511 -84.659913341236 268.308303956012 43.732186658764 285.463082393511 C 396.440286658764 333.252826456011 687.169366658764 264.632375518511 595.668806658764 230.321481456011 L 595.671486658763 230.321481456011 Z M 226.729286658764 7.304013018511 C 226.729286658764 7.304013018511 65.870326658764 39.163842393511 169.174946658764 50.191627706011 C 213.448546658764 55.092419893511 300.517726658764 53.868893331011 381.685546658764 48.966763956011 C 448.093266658764 44.064634581011 514.505006658763 34.261713018511 514.505006658763 34.261713018511 C 514.505006658763 34.261713018511 490.892866658764 42.839770831011 474.658766658764 51.417828643511 C 310.849126658764 86.952249268511 -3.490753341236 71.023671768511 86.530446658764 34.261713018511 C 163.270906658764 3.626747393511 226.727946658764 7.304013018511 226.727946658764 7.304013018511 L 226.729286658764 7.304013018511 Z M 514.505006658763 140.868986456011 C 679.791326658763 69.797470831011 603.050866658763 1.177019893511 549.923886658763 9.755077706011 C 536.640466658763 12.206142393511 530.739106658763 14.655869893511 530.739106658763 14.655869893511 C 530.739106658763 14.655869893511 535.166466658763 7.304013018511 545.496526658764 4.852948331011 C 650.276486658763 -25.780680106489 732.918306658763 96.755170831011 511.554326658763 144.544914893511 C 511.554326658763 144.544914893511 513.028326658764 143.320051143511 514.505006658763 140.868986456011 L 514.505006658763 140.868986456011 Z M 242.964726658764 334.477690206011 C 402.347006658763 343.055748018511 645.849126658763 329.576898018511 651.750486658763 267.083440206011 C 651.750486658763 267.083440206011 639.945086658763 291.591412706012 520.407706658764 309.969717706012 C 384.636226658764 330.801761768511 216.401906658764 328.350697081011 117.523306658764 314.871847081011 C 117.523306658764 314.871847081011 138.183426658764 329.576898018511 242.962046658764 334.477690206011 L 242.964726658764 334.477690206011 Z" fill="#4e7896" stroke="none" stroke-width="1"/></g><g><path d="M 432.40058 0 C 432.40058 0 523.89846 77.19850875 345.33006 193.60870375 C 202.18054 287.9619909375 312.8632 341.878728125 345.33006 403.1473221875 C 261.21156 340.653864375 200.7052 285.51092625 242.02678 234.04525375 C 302.53314 158.0729459375 469.2948 121.312324375 432.40058 0 L 432.40058 0 Z M 385.17764 351.6816496875 C 427.97322 392.119536875 373.36956 428.881495625 373.36956 428.881495625 C 373.36956 428.881495625 482.57688 382.3166153125 432.40058 324.7239496875 C 386.65164 269.58234875 351.23276 242.62464875 543.08324 150.7210890625 C 543.08324 150.7210890625 240.55144 213.2158840625 385.17764 351.6816496875 L 385.17764 351.6816496875 Z M 275.96898 1009.707606875 L 275.96898 889.62014625 C 275.96898 858.985180625 255.30886 838.15447375 203.65722 838.15447375 C 174.14104 838.15447375 149.05222 844.281466875 126.91542 851.63332375 L 134.29614 873.690231562499 C 150.52756 868.7881021875 171.18902 863.8859728125 193.32582 863.8859728125 C 221.36666 863.8859728125 234.6474 873.690231562499 234.6474 893.2960746875 L 234.6474 909.225989374999 L 219.88998 909.225989374999 C 149.05222 909.225989374999 116.58536 931.282897187499 116.58536 966.818655 C 116.58536 996.2274196875 138.72216 1013.382198124999 178.5684 1013.382198124999 C 203.65722 1013.382198124999 222.842 1003.5792765625 240.55144 991.326627499999 L 243.50212 1009.707606875 L 275.96898 1009.707606875 L 275.96898 1009.707606875 Z M 234.6474 970.4945834375 C 219.88998 981.52236875 203.65722 987.650699062499 188.89846 987.650699062499 C 169.71502 987.650699062499 157.90962 977.847777499998 157.90962 960.691661875 C 157.90962 943.5368834375 169.71502 931.282897187499 216.93796 931.282897187499 L 234.6474 931.282897187499 L 234.6474 970.4945834375 L 234.6474 970.4945834375 Z M 414.69114 1009.707606875 L 363.03816 1009.707606875 L 301.0578 841.8304021875 L 345.3314 841.8304021875 L 383.69962 944.761747187499 L 392.55434 975.395375625 C 411.74046 931.282897187499 426.49922 885.942880624999 432.40058 841.8304021875 L 476.67418 841.8304021875 C 464.86878 896.972003125 444.20732 957.0157334375 414.69114 1009.707606875 L 414.69114 1009.707606875 Z M 653.76724 1009.707606875 L 653.76724 889.62014625 C 653.76724 858.985180625 633.105779999999 838.15447375 581.4528 838.15447375 C 551.93662 838.15447375 526.84914 844.281466875 504.71368 851.63332375 L 510.61638 873.690231562499 C 528.32582 868.7881021875 548.98594 863.8859728125 571.12274 863.8859728125 C 599.16358 863.8859728125 612.44566 873.690231562499 612.44566 893.2960746875 L 612.44566 909.225989374999 L 597.68824 909.225989374999 C 526.84914 909.225989374999 494.383619999999 931.282897187499 494.383619999999 966.818655 C 494.383619999999 996.2274196875 515.04374 1013.382198124999 554.889979999999 1013.382198124999 C 581.4528 1013.382198124999 600.63758 1003.5792765625 618.34836 991.326627499999 L 621.30038 1009.707606875 L 653.76724 1009.707606875 L 653.76724 1009.707606875 Z M 612.44566 970.4945834375 C 597.68824 981.52236875 581.4528 987.650699062499 566.694039999999 987.650699062499 C 547.5106 987.650699062499 535.7052 977.847777499998 535.7052 960.691661875 C 535.7052 943.5368834375 547.5106 931.282897187499 594.736219999999 931.282897187499 L 612.44566 931.282897187499 L 612.44566 970.4945834375 L 612.44566 970.4945834375 Z M 70.83642 1037.890170624999 C 59.03102 1052.593884375 41.32158 1063.623006874999 19.18612 1069.75 L 0 1050.142819687501 C 14.75742 1042.7909628125 29.51618 1031.7631775 35.41754 1021.9602559375 C 41.32158 1013.3835353125 42.79826 1001.128211875 42.79826 972.945648125 L 42.79826 781.788009062499 L 87.07052 781.788009062499 L 87.07052 970.4945834375 C 87.07052 1008.481405937501 82.64316 1023.185119687501 70.83642 1037.890170624999 L 70.83642 1037.890170624999 Z" fill="#f58219" stroke="none" stroke-width="1"/></g></g></g></svg>