<svg xmlns="http://www.w3.org/2000/svg" xmlns:xlink="http://www.w3.org/1999/xlink" xmlns:v="http://vecta.io" width="1920" height="1080" viewBox="0 0 1920 1080"><style><![CDATA[svg{stroke:#000;stroke-linecap:round;stroke-linejoin:round;fill:#fff;fill-rule:evenodd;font-family:Roboto;font-size:14px;text-anchor:middle}svg text{paint-order:stroke;white-space:pre}svg .Text\.cls{stroke:none}]]></style><defs><linearGradient id="L66153383303e863d5055934f805aad45.grad" x1="66.93%" x2="33.04%" y1="15.90%" y2="83.99%"><stop offset="30%" stop-color="#3e863d"/><stop offset="50%" stop-color="#55934f"/><stop offset="80%" stop-color="#5aad45"/></linearGradient><clipPath id="kz4mtftf6rn.clip"><path d="M 115.131260999711 0.906303405762 L 6.561099309632 63.571888571412 C 2.501376354032 65.911472801056 -0.000235925751 70.240691601087 8.634e-9 74.926289272048 L 8.634e-9 200.345109223045 C 8.634e-9 205.027521779967 2.494534256879 209.354381236264 6.561099309632 211.699509923682 L 115.139046834402 274.414051471801 C 119.198769790002 276.751807210051 124.196095989953 276.751807210051 128.256054879937 274.414051471801 L 236.815835457094 211.699509923682 C 240.865413234156 209.351726974564 243.359121712055 205.025929222947 243.361599023093 200.345109223045 L 243.361599023093 74.926289272048 C 243.361599023093 70.246354026047 240.861874218387 65.91701725883 236.790118609174 63.571888571412 L 128.245673767015 0.906303405762 C 124.176041567262 -1.429269939536 119.172581073312 -1.429269939536 115.10294887356 0.906303405762" stroke="none" stroke-linejoin="miter" stroke-linecap="butt" fill="none" fill-rule="nonzero" stroke-width="1.3333333333333335" transform="translate(109.719633995103 96.180549513406)"/></clipPath><linearGradient id="L21717829563e863d7261985710076ac64.grad" x1="21.79%" x2="78.73%" y1="71.30%" y2="29.36%"><stop offset="56.99999999999999%" stop-color="#3e863d"/><stop offset="72%" stop-color="#619857"/><stop offset="100%" stop-color="#76ac64"/></linearGradient><clipPath id="kz4mtftf6rp.clip"><path d="M 0 208.783053897477 C 1.038583202145 210.130888041979 2.337402040812 211.298291367347 3.865549110393 212.174492680925 L 96.999235513774 265.970009236875 L 112.51310158762 274.886441426105 C 114.832336680099 276.226430752384 117.476335465842 276.793381073899 120.074091110372 276.600150814506 C 120.93997033615 276.530550171624 121.805849561928 276.368227316358 122.651084528235 276.128517983583 L 237.158657515069 66.461535921495 C 236.282515143154 65.508066097598 235.256790365479 64.709192277934 234.107553932573 64.039138631199 L 163.017689824251 22.987086901902 L 125.439475163073 1.365824141179 C 124.371754063275 0.760239564504 123.22759021984 0.300875321479 122.037773071176 0 Z M 0 208.783053897477" stroke="none" stroke-linejoin="miter" stroke-linecap="butt" fill="none" fill-rule="nonzero" stroke-width="1.3333333333333335" transform="translate(132.273668785278 113.306779466055)"/></clipPath><linearGradient id="L05010050166bbf473879b4614775ac6470659e5a903e863d.grad" x1="0.03%" x2="100.02%" y1="50.00%" y2="50.00%"><stop offset="16%" stop-color="#6bbf47"/><stop offset="38%" stop-color="#79b461"/><stop offset="47%" stop-color="#75ac64"/><stop offset="70%" stop-color="#659e5a"/><stop offset="90%" stop-color="#3e863d"/></linearGradient><clipPath id="kz4mtftg6rr.clip"><path d="M 113.50520242624 0.048956384581 C 111.658779912713 0.235462514756 109.872048799125 0.80789831278 108.261088803934 1.729163096842 L 0 64.214379130728 L 116.739391004752 276.844933757472 C 118.362973489653 276.613010258469 119.960721159166 276.071894749858 121.403813837928 275.236922966569 L 229.973976688977 212.522378711899 C 233.291214171751 210.602403682382 235.606084410886 207.331409389215 236.313533670637 203.564540005478 L 117.306341336979 0.262830903245 C 116.432322399928 0.088652344609 115.543321629295 0.000648819555 114.652079481985 0 C 114.291335804093 0 113.930474159007 0.017989996744 113.569730481115 0.051492679204" stroke="none" stroke-linejoin="miter" stroke-linecap="butt" fill="none" fill-rule="nonzero" stroke-width="1.3333333333333335" transform="translate(0.002477311065 0)"/></clipPath></defs><rect x="0" y="0" width="1920" height="1080" fill="#333333" stroke="none" stroke-opacity="0" transform="translate(-0.5 -0.5)"/><g transform="translate(369.5 191.306318722174)"><g ><g transform="translate(438.798271283882 417.23718326669)"><path d="M 124.661244004434 280.95651216948 C 120.898680304088 280.95651216948 117.162069386752 279.969598611961 113.863470666293 278.070326764475 L 79.493610291334 257.722165213368 C 74.36014981213 254.851315543776 76.865065241292 253.835971892142 78.558130431051 253.250972569678 C 85.40282304812 250.854351025981 86.79176880789 250.313117533045 94.097713159349 246.164093300255 C 94.865679602028 245.726081103378 95.870642140459 245.880618129478 96.656657564049 246.344465142168 L 123.060901030335 262.012868047948 C 124.014429871529 262.528266725071 125.367277669477 262.528266725071 126.251323832524 262.012868047948 L 229.203418751414 202.586539415246 C 230.157065559803 202.045423889506 230.775449598593 200.937240055016 230.775449598593 199.803339371908 L 230.775449598593 81.002469705326 C 230.775449598593 79.816899390591 230.157065559803 78.760385187728 229.182892459397 78.167717997557 L 126.271850124541 18.792941029285 C 125.318321283346 18.225990687732 124.055600422757 18.225990687732 123.102071581563 18.792941029285 L 20.211673505918 78.167717997557 C 19.214378835195 78.73466833911 18.580423126599 79.842734206404 18.580423126599 80.976634889512 L 18.580423126599 199.77762252329 C 18.580423126599 200.911523206398 19.198925132585 201.993872225074 20.178170822397 202.534987750814 L 48.370796972403 218.82189266258 C 63.678456194357 226.475604306361 73.033018862799 217.456068473127 73.033018862799 208.384863008266 L 73.033018862799 91.130189373049 C 73.033018862799 89.455055197006 74.34729138782 88.166617487799 76.022307596668 88.166617487799 L 89.062165452406 88.166617487799 C 90.685629996823 88.166617487799 92.025737337657 89.455055197006 92.025737337657 91.130189373049 L 92.025737337657 208.436414672698 C 92.025737337657 228.84650900144 80.892937164308 240.571976364962 61.539475005623 240.571976364962 C 55.586614386503 240.571976364962 50.896356660777 240.571976364962 37.804947140607 234.129433917338 L 10.797773338141 218.564134340421 C 4.116111385247 214.665436496473 0.005426490993 207.513557302332 0 199.77762252329 L 0 80.976634889512 C 0 73.245536765485 4.123307384172 66.029837318581 10.797773338141 62.215839920999 L 113.853207520285 2.763794439678 C 120.373018480958 -0.921264813226 129.031810630365 -0.921264813226 135.500187893803 2.763794439678 L 238.426683931269 62.241674736813 C 245.107756048186 66.12833992682 249.219856548786 73.273023122036 249.22445726941 81.002469705326 L 249.22445726941 199.803339371908 C 249.22445726941 207.508720647317 245.07543303662 214.698585278408 238.426683931269 218.564134340421 L 135.500187893803 278.016179821742 C 132.200645435779 279.916041505206 128.458254125864 280.911566667997 124.650980858426 280.902483193943" stroke="none" stroke-linejoin="miter" stroke-linecap="butt" fill="#689f63" fill-rule="nonzero" stroke-width="1.3333333333333335"/></g><g transform="translate(540.768761169049 472.010590791041)"><path d="M 54.491288976323 144.321302904213 C 9.444807572997 144.321302904213 0 123.643187107303 0 106.299767992675 C 0 104.650586599641 1.329726227631 103.336196107424 2.981620866162 103.336196107424 L 16.279119076863 103.336196107424 C 17.74804659518 103.336196107424 18.984932639955 104.405686701791 19.2168561463 105.856683206392 C 21.226899190357 119.406631215455 27.205712592486 126.240824752125 54.444809901297 126.240824752125 C 76.143459906443 126.240824752125 85.369202397404 121.339405746462 85.369202397404 109.83288549778 C 85.369202397404 103.209971208243 82.740657347362 98.287907943368 49.033182775113 94.989309222908 C 20.840438657912 92.205991212375 3.419751030234 85.995490238292 3.419751030234 63.446532688011 C 3.419751030234 42.675576708247 20.943541986776 30.305890490121 50.295903635702 30.305890490121 C 83.256056024484 30.305890490121 99.594394633486 41.747882682866 101.655989341974 66.332718093017 C 101.725118118535 67.168397705911 101.441289046172 67.994875877556 100.873394967054 68.61184431 C 100.305500887936 69.228694775248 99.505211433691 69.579765149045 98.666700608105 69.579765149045 L 85.291815917158 69.579765149045 C 83.900274879087 69.579765149045 82.68910568293 68.600519459232 82.405630512153 67.260412118397 C 79.184300304743 53.009503033697 71.401650516285 48.448183452648 50.244234004075 48.448183452648 C 26.561375770687 48.448183452648 23.804010543163 56.694562286602 23.804010543163 62.879582346458 C 23.804010543163 70.378638996944 27.051057599191 72.569171850109 59.006129482346 76.795464595949 C 90.652009346106 80.996040493171 105.676193397283 86.923184263673 105.676193397283 109.162831827363 C 105.676193397283 131.583087167358 86.966950093202 144.442455213987 54.341706572434 144.442455213987 M 179.739891647131 18.451484981922 L 183.193145360886 18.451484981922 C 186.027897068655 18.451484981922 186.569130561591 16.467276753679 186.569130561591 15.307541254758 C 186.569130561591 12.266700856457 184.481701037289 12.266700856457 183.322083505563 12.266700856457 L 179.765726462945 12.266700856457 Z M 175.539433717104 8.710343813839 L 183.193145360886 8.710343813839 C 185.821808378123 8.710343813839 190.975795149344 8.710343813839 190.975795149344 14.585935919909 C 190.975795149344 18.683408488267 188.347250099302 19.533951967794 186.775219252122 20.04923267772 C 189.841894466236 20.255439335447 190.048101123964 22.265482379504 190.460396472222 25.100234087273 C 190.666603129949 26.878353624984 191.001629965158 29.945028839099 191.620131971143 30.975826193343 L 186.904039429604 30.975826193343 C 186.775219252122 29.945028839099 186.053731884468 24.27552542356 186.053731884468 23.966333404165 C 185.744421897878 22.703612543576 185.306291733806 22.08511053759 183.734378853821 22.08511053759 L 179.842994975994 22.08511053759 L 179.842994975994 31.001661009157 L 175.539433717104 31.001661009157 Z M 166.339526041957 19.791592322757 C 166.339526041957 29.017334813718 173.787031028011 36.490792582782 182.935505005922 36.490792582782 C 192.161247496884 36.490792582782 199.608870450133 28.862679820423 199.608870450133 19.791592322757 C 199.608870450133 10.540132983178 192.05814416802 3.195495391596 182.909670190109 3.195495391596 C 173.890134356875 3.195495391596 166.313573258948 10.437029654314 166.313573258948 19.765875474139 M 202.804365841729 19.843026019993 C 202.804365841729 30.769737502811 193.862098521545 39.686287974378 182.961221854541 39.686287974378 C 172.137731667781 39.686287974378 163.118077867352 30.872840831675 163.118077867352 19.843026019993 C 163.118077867352 8.607358452171 172.343820358313 0 182.961221854541 0 C 193.656009831013 0 202.778648993111 8.633075300789 202.778648993111 19.843026019993" stroke="none" stroke-linejoin="miter" stroke-linecap="butt" fill="#689f63" fill-rule="nonzero" stroke-width="1.3333333333333335"/></g><g><path d="M 244.652815558755 233.349447058723 C 244.652815558755 228.607696652163 242.153090686195 224.252524745244 238.060690707243 221.894537458072 L 128.908122025888 159.092400575457 C 127.082343741196 158.028454439279 125.020749032708 157.435079445934 122.908782331743 157.36577371858 L 121.780072205237 157.36577371858 C 119.687511107931 157.443101215228 117.623321121142 158.009992573184 115.749825105872 159.092400575457 L 6.602329013923 221.894537458072 C 2.518481656644 224.27069169335 0.004423769831 228.637483369026 0 233.362305483032 L 0.23965035765 402.518475268251 C 0.23965035765 404.863545147516 1.450878537405 407.054078000682 3.512532229492 408.213695532407 C 5.522575273548 409.450699544378 8.048075978324 409.450699544378 10.058178005979 408.213695532407 L 74.947685429297 371.052967246404 C 79.045157997656 368.615057184283 81.544882870216 364.306305368791 81.544882870216 359.610916070061 L 81.544882870216 280.586343348019 C 81.535327527381 275.87597221546 84.047262004675 271.520682341345 88.129221886826 269.17012698749 L 115.754956678876 253.259537429356 C 117.758629494375 252.095791045788 120.034983482264 251.484013169945 122.352154119795 251.486549464649 C 124.609633356404 251.486549464649 126.913532684441 252.068953508812 128.908122025888 253.257001134653 L 156.520939410031 269.162400136185 C 160.608148832381 271.507528999048 163.11813685095 275.862641922369 163.11813685095 280.578616496714 L 163.11813685095 359.598057645752 C 163.11813685095 364.28825638788 165.651364407031 368.617652462584 169.728192716178 371.040049838497 L 234.576529588268 408.175002292284 C 236.608868432273 409.386289455638 239.141506152377 409.386289455638 241.173727029187 408.175002292284 C 243.194387120838 406.988960108768 244.437171525389 404.82284646507 244.441418344427 402.479782028128 Z M 759.718117386362 321.421926724516 C 759.718117386362 322.599652220751 759.091947512669 323.689728090732 758.068935993328 324.272132134896 L 720.578253461522 345.883132513788 C 719.559370794023 346.468308787046 718.306323243465 346.468308787046 717.287440575965 345.883132513788 L 679.791685454754 324.272132134896 C 678.760888100509 323.687191796028 678.142386094524 322.59705694245 678.142386094524 321.421926724516 L 678.142386094524 278.13817013989 C 678.142386094524 276.957908348952 678.760888100509 275.870427757272 679.76585063894 275.277701583502 L 717.235888911534 253.630662226386 C 718.266686265777 253.037936052617 719.529525093562 253.037936052617 720.560322447807 253.630662226386 L 758.055959601823 275.277701583502 C 759.086756956068 275.870427757272 759.705376929249 276.957908348952 759.705376929249 278.13817013989 Z M 769.845955021281 0.834512178944 C 767.801937424922 -0.302514634845 765.309408551287 -0.276030999456 763.28992813159 0.904112824286 C 761.279885087534 2.089506188228 760.037808486157 4.25420422558 760.037808486157 6.599333088443 L 760.037808486157 174.106144529832 C 760.040167830067 175.754618119694 759.161902059598 177.278872252698 757.734381026902 178.103285998421 C 756.306742027008 178.927640760548 754.547615207772 178.926638039386 753.120919945443 178.100513769327 L 725.778719307768 162.352306055794 C 721.703306604968 159.996914046923 716.680381387943 159.996914046923 712.604968685142 162.352306055794 L 603.416302041966 225.36837644744 C 599.339355765623 227.713033441521 596.824059223257 232.055759809316 596.819104601047 236.758875959351 L 596.819104601047 362.827055720869 C 596.819104601047 367.543030295213 599.336878454518 371.872426369917 603.416302041966 374.243390048593 L 712.604968685142 437.303226269769 C 716.681796994289 439.648178181839 721.701890998622 439.648178181839 725.791695699273 437.303226269769 L 834.98036234245 374.217437265584 C 839.052000094994 371.846650537701 841.577559783369 367.517254462997 841.577559783369 362.801279888653 L 841.577559783369 48.610046682874 C 841.56965598127 43.826594872706 838.977444827441 39.420874022516 834.799872533341 37.090668009884 Z M 1133.446686355806 276.999137883778 C 1137.503814143304 274.638201416719 1140 270.297893376431 1140 265.603506798863 L 1140 235.050298083385 C 1140 230.34977721165 1137.500039193049 226.012654285642 1133.436305242602 223.646940147165 L 1024.943291151265 160.664372439039 C 1020.855491892937 158.293703678352 1015.811096646332 158.293703678352 1011.723179420809 160.664372439039 L 902.560347593446 223.672715979381 C 898.462875025088 226.043561690862 895.963150152527 230.372957765565 895.963150152527 235.08893233991 L 895.963150152527 361.105619420593 C 895.963150152527 365.847310843556 898.514308722324 370.228258582691 902.611781290682 372.573446429152 L 1011.078960566205 434.396278638356 C 1015.0733298057 436.68979685319 1019.969676221958 436.715631669003 1024.01571509308 434.473665118601 L 1089.626827851248 398.008589384438 C 1091.688304592541 396.848971852712 1093.002695084757 394.658556966742 1093.002695084757 392.287652271663 C 1093.002695084757 389.916747576585 1091.739974224168 387.700615841997 1089.678261548484 386.540880343075 L 979.845376050703 323.506760970517 C 977.783781342215 322.347084455194 976.521060481626 320.156610585626 976.521060481626 317.811540706361 L 976.521060481626 278.279907725278 C 976.521060481626 275.919384143403 977.757946526402 273.744363976445 979.819659202085 272.569233758512 L 1013.990980787024 252.854968932402 C 1016.026858646894 251.669516584863 1018.526583519455 251.669516584863 1020.562461379325 252.854968932402 L 1054.759617780077 272.569233758512 C 1056.795495639948 273.728910273835 1058.058216500537 275.919384143403 1058.058216500537 278.264454022668 L 1058.058216500537 309.343442528473 C 1058.058216500537 311.688512407738 1059.320937361126 313.878986277306 1061.356815220996 315.064438624845 C 1063.392693080867 316.224056156571 1065.918134802046 316.224056156571 1067.954012661915 315.038662792629 Z M 1133.446686355806 276.999137883778" stroke="none" stroke-linejoin="miter" stroke-linecap="butt" fill="#ffffff" stroke-width="1.3333333333333335" fill-opacity="1"/></g><g transform="translate(994.508698450858 270.76050173357)"><path d="M 22.226789139381 0.342399784927 C 23.006788236001 -0.114133261642 23.972467698331 -0.114133261642 24.752348827755 0.342399784927 L 45.703558682238 12.428669815873 C 46.486978827527 12.882194698958 46.966279542827 13.717166508679 46.966279542827 14.619143685441 L 46.966279542827 38.817400595952 C 46.966279542827 39.719377772714 46.486978827527 40.554349582435 45.703558682238 41.007933449117 L 24.752348827755 53.094144496466 C 23.972467698331 53.550677543035 23.006788236001 53.550677543035 22.226789139381 53.094144496466 L 1.288437709207 41.007933449117 C 0.495698155474 40.563197122097 0.003539015865 39.726396820846 0 38.817400595952 L 0 14.619143685441 C 0 13.717166508679 0.46384701269 12.882194698958 1.262720860589 12.428669815873 Z M 22.226789139381 0.342399784927" stroke="none" stroke-linejoin="miter" stroke-linecap="butt" fill="#689f63" stroke-width="1.3333333333333335"/></g><g transform="translate(299.059050170438 159.541457451013)"><path d="M 462.795689044061 149.95730363623 L 156.863693096544 0 L 0 319.999937912002 L 305.924092145418 469.96490941594 Z M 462.795689044061 149.95730363623" stroke="none" stroke-linejoin="miter" stroke-linecap="butt" fill="url(#L66153383303e863d5055934f805aad45.grad)" fill-rule="nonzero" stroke-width="1.3333333333333335" transform="translate(-109.719636973417 -96.180556708926)" clip-path="url(#kz4mtftf6rn.clip)"/></g><g transform="translate(301.749410047608 159.911859698971)"><path d="M 0 211.066316345488 L 216.019287015584 503.437983170738 L 501.708702051962 292.363822006749 L 285.676320677678 0 Z M 0 211.066316345488" stroke="none" stroke-linejoin="miter" stroke-linecap="butt" fill="url(#L21717829563e863d7261985710076ac64.grad)" fill-rule="nonzero" stroke-width="1.3333333333333335" transform="translate(-132.273667129791 -113.306783470747)" clip-path="url(#kz4mtftf6rp.clip)"/><defs><clipPath><path d="M 0 208.783053897477 C 1.038583202145 210.130888041979 2.337402040812 211.298291367347 3.865549110393 212.174492680925 L 96.999235513774 265.970009236875 L 112.51310158762 274.886441426105 C 114.832336680099 276.226430752384 117.476335465842 276.793381073899 120.074091110372 276.600150814506 C 120.93997033615 276.530550171624 121.805849561928 276.368227316358 122.651084528235 276.128517983583 L 237.158657515069 66.461535921495 C 236.282515143154 65.508066097598 235.256790365479 64.709192277934 234.107553932573 64.039138631199 L 163.017689824251 22.987086901902 L 125.439475163073 1.365824141179 C 124.371754063275 0.760239564504 123.22759021984 0.300875321479 122.037773071176 0 Z M 0 208.783053897477" stroke="none" stroke-linejoin="miter" stroke-linecap="butt" fill="none" fill-rule="nonzero" stroke-width="1.3333333333333335" transform="translate(132.273668785278 113.306779466055)"/></clipPath></defs></g><g transform="translate(305.931818996723 159.563974439453)"><path d="M 1e-13 1e-13 L 0 276.850133077862 L 236.269653761625 276.850133077862 L 236.269653761625 0 Z M 1e-13 1e-13" stroke="none" stroke-linejoin="miter" stroke-linecap="butt" fill="url(#L05010050166bbf473879b4614775ac6470659e5a903e863d.grad)" fill-rule="nonzero" stroke-width="1.3333333333333335" transform="translate(-0.002477311105 0)" clip-path="url(#kz4mtftg6rr.clip)"/><defs><clipPath><path d="M 113.50520242624 0.048956384581 C 111.658779912713 0.235462514756 109.872048799125 0.80789831278 108.261088803934 1.729163096842 L 0 64.214379130728 L 116.739391004752 276.844933757472 C 118.362973489653 276.613010258469 119.960721159166 276.071894749858 121.403813837928 275.236922966569 L 229.973976688977 212.522378711899 C 233.291214171751 210.602403682382 235.606084410886 207.331409389215 236.313533670637 203.564540005478 L 117.306341336979 0.262830903245 C 116.432322399928 0.088652344609 115.543321629295 0.000648819555 114.652079481985 0 C 114.291335804093 0 113.930474159007 0.017989996744 113.569730481115 0.051492679204" stroke="none" stroke-linejoin="miter" stroke-linecap="butt" fill="none" fill-rule="nonzero" stroke-width="1.3333333333333335" transform="translate(0.002477311065 0)"/></clipPath></defs></g></g></g></svg>