<svg xmlns="http://www.w3.org/2000/svg" xmlns:xlink="http://www.w3.org/1999/xlink" xmlns:v="http://vecta.io" width="1920" height="1080" viewBox="0 0 1920 1080"><style><![CDATA[svg{stroke:#000;stroke-linecap:round;stroke-linejoin:round;fill:#fff;fill-rule:evenodd;font-family:Roboto;font-size:14px;text-anchor:middle}svg text{paint-order:stroke;white-space:pre}svg .Text\.cls{stroke:none}]]></style><rect x="0" y="0" width="1920" height="1089.5" stroke-opacity="0" stroke="none" fill="#5865F2" transform="translate(-0.5 -10)"/><g transform="translate(33.785714285714 368.312293699166)"><g ><g transform="translate(1628.526150956027 7.194803417673)"><path d="M 31.774928975405 239.146866065765 C 54.064395803392 260.066548369472 83.943661974457 274.330374045225 112.871220647013 274.330374045225 C 147.496540260077 274.330374045225 166.942663898294 258.63946449499 166.942663898294 234.392055692243 C 166.942663898294 208.719328895716 147.02093820539 200.63709474556 118.565155830096 188.751405835715 L 76.35416466486 170.209507121777 C 45.526916074884 157.372058968225 13.752389810787 133.124650165479 13.752389810787 87.481124446096 C 13.752389810787 38.035960301458 57.386965449621 0 117.617374766839 0 C 154.1348334603 0 189.232332081934 15.215231743319 213.420784082552 39.462741453534 L 184.961578661141 74.644786274699 C 165.515656378578 58.005346519753 144.17759501562 48.019947058325 117.617374766839 48.019947058325 C 88.210589637825 48.019947058325 69.240068054296 61.808397649568 69.240068054296 84.629479383847 C 69.240068054296 108.876888186593 92.95311935588 117.910881580454 118.565155830096 128.369789338223 L 160.300947651953 145.962098319031 C 197.294008400101 161.650485182551 222.902420472545 184.946891547605 222.902420472545 230.113276301778 C 222.902420472545 280.510552866262 181.166830006342 322.349867019942 111.454884976958 322.349867019942 C 69.715871464637 322.349867019942 29.403563438551 305.709367736575 0 276.707098106573 L 31.774928975405 239.146866065765 Z" fill-rule="nonzero" stroke="none" stroke-linecap="butt" stroke-linejoin="miter" stroke-width="0.21520608595681875" fill="#ffffff" fill-opacity="1"/></g><g transform="translate(1409.713364493526 7.194803417673)"><path d="M 136.1119922622 0 L 189.998792378787 0 L 189.998792378787 215.254550644974 C 189.998792378787 272.303042093857 156.23970478912 322.160615062608 91.479900713578 322.160615062608 C 47.422478201398 325.037890621878 9.64513718102 294.606064884413 0 263.612739538 C 8.026237723067 262.393474595072 15.839642519884 261.144240133974 25.598142934091 258.06772277798 C 33.354362725179 255.621271655839 44.955468728905 250.366162053066 44.955468728905 250.366162053066 C 53.688062086114 264.321866773491 69.147545131295 273.596019942588 86.762137740961 273.596019942588 C 114.02146482034 273.596019942588 136.119241065744 251.38300661401 136.119241065744 223.981482611928 L 136.1119922622 0 Z" fill-rule="nonzero" stroke="none" stroke-linecap="butt" stroke-linejoin="miter" stroke-width="0.21520608595681875" fill="#ffffff" fill-opacity="1"/></g><g transform="translate(1298.90130744188 7.194803417673)"><path d="M 211.990051483238 116.944188031397 C 211.990051483238 93.487338791291 207.577543682047 73.089600368847 198.759776883207 55.412630021896 C 189.601114962188 38.074406046989 176.374263408274 24.476771478843 158.735105408823 14.61811179796 C 141.099571811142 4.759502570811 119.73291794532 0 94.291026998712 0 L 0 0 L 0 237.967812749068 L 80.208816626716 237.967812749068 L 89.882143599292 237.967812749068 C 113.442567315164 237.967812749068 131.493497626993 234.229090130476 148.248905661152 225.760834459244 C 148.227561961831 225.170576221749 148.220514513942 224.577442121399 148.220514513942 223.981482611928 C 148.220514513942 196.580311785985 170.318290759345 174.367298457407 197.577617838724 174.367298457407 C 198.3870675677 174.367298457407 199.192892894905 174.386874506313 199.991670774221 174.425673427984 C 208.543044042853 156.977510766053 211.990051483238 139.679094787503 211.990051483238 116.944188031397 Z M 56.982240585133 50.993336981424 L 56.982240585133 186.974576675113 L 89.204179112361 186.974576675113 C 109.89629153737 186.974576675113 125.497931674256 180.854891881493 136.012522569137 168.277179552083 C 146.527314819672 156.038566770857 151.95143342643 139.380963671565 151.95143342643 117.963858001462 C 151.95143342643 96.886961861698 146.864384184425 80.569114209136 136.690688411722 68.671013680655 C 126.513166881594 56.772156346159 111.252220511233 50.993336981424 91.238273928809 50.993336981424 L 56.982240585133 50.993336981424 Z" stroke="none" stroke-linecap="butt" stroke-linejoin="miter" stroke-width="0.21520608595681875" fill="#ffffff" fill-opacity="1"/></g><g transform="translate(1465.431896994316 199.916514512385)"><path d="M 62.377968044681 31.260124693355 C 62.377968044681 48.524736669928 48.412745307643 62.519946664304 31.18898402234 62.519946664304 C 13.965222737038 62.519946664304 0 48.524736669928 0 31.260124693355 C 0 13.995209994376 13.965222737038 0 31.18898402234 0 C 48.412745307643 0 62.377968044681 13.995209994376 62.377968044681 31.260124693355 Z" fill-rule="nonzero" stroke="none" stroke-linecap="butt" stroke-linejoin="miter" stroke-width="0.21520608595681875" fill="#ffffff" fill-opacity="1"/></g><g><path d="M 89.948237334236 245.309537441003 C 116.084006156803 245.309537441003 138.486433506669 240.205990856047 156.815385637723 229.658839516999 C 175.144690141171 219.451796800822 189.061184809947 205.161987451908 198.225484689277 186.789108747851 C 207.390136941001 168.756691842805 212.142331730447 147.661985534835 212.142331730447 124.185913421963 C 212.142331730447 100.709538586685 207.729471556861 80.29545315433 198.904556632305 62.603195325888 C 189.739904380581 45.251399296457 176.502129282439 31.641908100751 158.851947060932 21.775074914913 C 141.201714500512 11.908241729074 119.817744048448 7.144955128191 94.360694796514 7.144955128191 L 0 7.144955128191 L 0 245.309537441003 L 89.948237334236 245.309537441003 Z M 57.023718591378 194.274323860116 L 57.023718591378 58.180320070281 L 91.306079186811 58.180320070281 C 111.332214078665 58.180320070281 126.606500261103 63.964083900978 136.789257038234 75.872527444989 C 146.972013815365 87.780668266594 152.063543220672 104.111987066213 152.063543220672 125.206693374182 C 152.063543220672 146.641558758756 146.632628860592 163.313036634979 136.1105374676 175.561286079455 C 125.588043363301 188.149997322941 109.97437222609 194.274323860116 89.269517763603 194.274323860116 L 57.023718591378 194.274323860116 Z M 308.943206617035 7.144955128191 L 251.91943642827 7.144955128191 L 251.91943642827 245.309537441003 L 308.943206617035 245.309537441003 L 308.943206617035 7.144955128191 Z M 436.319358662106 252.454593476663 C 464.490927531815 252.454593476663 486.894059626471 245.650049693748 503.184336099949 231.700399421438 C 519.13734185302 218.090857771998 527.284292290645 199.377819991337 527.284292290645 175.901798332199 C 527.284292290645 158.209540503757 522.193820002522 143.579269355833 512.009251024505 132.011287610832 C 501.828306448259 120.783464942435 485.534506250837 111.257043101872 462.794103435775 104.111987066213 L 438.353352800727 96.286612877344 C 429.191267833591 92.544055774946 422.741141492007 88.801448218814 418.669453304624 85.058840662681 C 414.257046181259 81.316233106549 412.219427640867 76.893307397208 412.219427640867 71.109190390372 C 412.219427640867 56.819381041458 423.419206656766 49.674325005798 446.163032517945 49.674325005798 C 470.262988708641 49.674325005798 493.344085290227 57.499648740932 515.743693660938 73.49085891768 L 515.743693660938 21.094605400501 C 491.984531914594 7.144955128191 466.865816792615 0 440.05380129854 0 C 412.560121407391 0 390.835054477495 6.46448561378 375.222843168775 19.393406387604 C 359.607007458283 32.662587145502 351.801254176318 50.354945881413 351.801254176318 73.150699841076 C 351.801254176318 90.162336793903 356.554153710553 104.111987066213 365.716339355516 114.999650658005 C 374.882048724423 126.227120150261 389.816295546212 135.07327429135 410.181809100475 142.218330327009 L 438.016182758147 151.404593090968 C 447.859856613986 155.487359723705 454.64715299815 159.230320455977 458.38169631241 162.972574835969 C 462.116138948843 166.715182392101 463.812862367057 171.818678523322 463.812862367057 177.602845983893 C 463.812862367057 193.934164783511 452.609534457758 202.099698048985 429.869232320523 202.099698048985 C 416.29104031988 202.099698048985 402.716447551552 199.377819991337 388.797435937102 194.274323860116 C 374.882048724423 189.17077727516 362.663485607785 182.706342115115 351.801254176318 174.200397504365 L 351.801254176318 227.277120535956 C 377.256937985222 243.948598412179 405.432030578876 252.454593476663 436.319358662106 252.454593476663 Z M 679.189514594488 252.114434400059 C 693.793638821586 252.114434400059 708.0426723529 250.072924949354 721.276571354704 246.330317393222 C 734.524565252285 242.58770983709 746.06153948022 237.484163252134 755.901790289941 231.019778545823 L 755.901790289941 178.963734558982 C 747.076875365385 185.088061096158 737.23310083172 189.851448604509 726.036921048135 193.593702984501 C 714.829968737064 197.336310540633 703.633788953481 199.377819991337 692.093190323773 199.377819991337 C 676.136660846758 199.377819991337 661.880479189728 196.315883764554 649.999086115669 189.851448604509 C 638.121216765556 183.727122067334 628.955608074475 175.22112700285 622.505481732891 163.993304334453 C 616.058879115252 152.765532119791 612.665331600997 140.176770422571 612.665331600997 125.887011527391 C 612.665331600997 111.597202178477 616.058879115252 99.008440481257 622.505481732891 87.780668266594 C 628.955608074475 76.552845598198 638.121216765556 68.047203709854 649.999086115669 61.922927626414 C 661.880479189728 55.798601089239 675.455071958055 52.736261232581 691.411601435071 52.736261232581 C 714.489174292713 52.736261232581 735.536276735679 59.881367721975 754.890078806548 73.831017994285 L 754.890078806548 19.733615917943 C 732.827741156244 6.804695144118 708.0426723529 0.340259984073 679.874627207136 0.340259984073 C 654.411493239034 0.340259984073 632.011985546149 5.783965645633 613.002501643577 16.671477876223 C 593.655847698424 27.559040560546 579.058871597041 42.529218516404 568.537031898618 61.922927626414 C 558.015292878021 81.316233106549 552.924820589898 103.091207113993 552.924820589898 127.588412355225 C 552.924820589898 150.724325391493 558.015292878021 171.818678523322 567.859067411687 190.531716303983 C 577.702841945352 209.584862707515 592.296193644963 224.555292932044 611.305677547536 235.44265380143 C 630.315161450109 246.670476469826 653.055463587344 252.114434400059 679.189514594488 252.114434400059 Z M 906.514913362232 252.114434400059 C 930.614869552928 252.114434400059 952.00629016419 246.670476469826 971.005102217102 236.123274677045 C 989.673690997497 225.576072884262 1004.615085945002 210.605642659734 1015.129676839884 191.552496256203 C 1025.655040262251 172.499299398937 1030.745411872547 150.724325391493 1030.745411872547 126.567632403006 C 1030.745411872547 102.410939414519 1025.655040262251 80.6355617772 1015.129676839884 61.242256297065 C 1004.615085945002 42.189109893533 989.673690997497 27.218780576473 971.005102217102 16.33121789215 C 952.00629016419 5.783965645633 930.614869552928 0.340259984073 906.514913362232 0.340259984073 C 882.752227891943 0.340259984073 861.375002854286 5.783965645633 842.706313396064 16.33121789215 C 824.03772461567 27.218780576473 809.444171560405 42.189109893533 798.922432539808 61.242256297065 C 788.397069117439 80.6355617772 782.965802384965 102.410939414519 782.965802384965 126.567632403006 C 782.965802384965 150.724325391493 788.397069117439 172.499299398937 798.922432539808 191.552496256203 C 809.444171560405 210.605642659734 824.03772461567 225.576072884262 842.706313396064 236.123274677045 C 861.375002854286 246.670476469826 882.752227891943 252.114434400059 906.514913362232 252.114434400059 Z M 906.514913362232 198.016931416248 C 893.618285080835 198.016931416248 882.422105297251 194.95494473573 872.911977082222 188.83066865229 C 863.071826950327 182.706342115115 855.599417953516 174.200397504365 850.508844987566 163.313036634979 C 845.41847337727 152.765532119791 842.706313396064 140.517282675316 842.706313396064 126.907741025876 C 842.706313396064 113.298249830171 845.41847337727 101.050000385695 850.508844987566 89.822177717299 C 855.599417953516 78.934514125506 863.071826950327 70.428872237163 872.911977082222 63.964083900978 C 882.422105297251 57.499648740932 893.618285080835 54.437712514149 906.514913362232 54.437712514149 C 919.759383535869 54.437712514149 930.955663997281 57.499648740932 940.799337853117 63.964083900978 C 950.639588662839 70.428872237163 958.111997659651 78.934514125506 963.202469947773 89.822177717299 C 968.292942235896 101.050000385695 970.674878944584 113.298249830171 970.674878944584 126.907741025876 C 970.674878944584 140.517282675316 967.952147791545 152.765532119791 962.861675503422 163.313036634979 C 957.767679491355 174.200397504365 950.309466068148 182.706342115115 940.799337853117 188.83066865229 C 930.955663997281 194.95494473573 919.759383535869 198.016931416248 906.514913362232 198.016931416248 Z M 1194.57109024732 149.363386362669 C 1215.27749892376 146.981717835361 1230.882562106764 139.496502723096 1242.093038141779 127.247900102481 C 1253.289217925363 114.999650658005 1258.720585335667 99.348599557861 1258.720585335667 80.6355617772 C 1258.720585335667 57.839807817537 1251.251700062798 40.147903165235 1235.976658796658 26.878621499869 C 1220.701617530518 13.609390288237 1200.005880703738 7.144955128191 1174.205576693057 7.144955128191 L 1069.655378446531 7.144955128191 L 1069.655378446531 245.309537441003 L 1126.687353878195 245.309537441003 L 1126.687353878195 144.940157930923 L 1196.942455784175 245.309537441003 L 1265.166986597651 245.309537441003 L 1194.57109024732 149.363386362669 Z M 1126.687353878195 55.117980213624 L 1163.33962018199 55.117980213624 C 1174.546471815235 55.117980213624 1183.034015341557 57.840160993677 1188.799230426149 62.943657124898 C 1194.57109024732 68.387362786459 1197.624044672877 76.212686521593 1197.624044672877 86.079620614901 C 1197.624044672877 96.626771953948 1194.230396480795 104.452146142817 1187.783793863156 110.236263149653 C 1181.337392601171 116.020077434084 1171.827365063966 118.742258214137 1159.27495427304 118.742258214137 L 1126.687353878195 118.742258214137 L 1126.687353878195 55.117980213624 Z" fill-rule="nonzero" stroke="none" stroke-linecap="butt" stroke-linejoin="miter" stroke-width="0.21520608595681875" fill="#ffffff" fill-opacity="1"/></g></g></g></svg>