<svg xmlns="http://www.w3.org/2000/svg" xmlns:xlink="http://www.w3.org/1999/xlink" xmlns:v="http://vecta.io" width="1920" height="1080" viewBox="0 0 1920 1080"><style><![CDATA[svg{stroke:#000;stroke-linecap:round;stroke-linejoin:round;fill:#fff;fill-rule:evenodd;font-family:Roboto;font-size:14px;text-anchor:middle}svg text{paint-order:stroke;white-space:pre}svg .Text\.cls{stroke:none}]]></style><defs><linearGradient id="L520481000387EB8100366994.grad" x1="52%" y1="0%" x2="48%" y2="100%"><stop offset="0%" stop-color="#387EB8"/><stop offset="100%" stop-color="#366994"/></linearGradient><linearGradient id="L500501000FFE052100FFC331.grad" x1="50%" y1="0%" x2="50%" y2="100%"><stop offset="0%" stop-color="#FFE052"/><stop offset="100%" stop-color="#FFC331"/></linearGradient></defs><g transform="translate(559.5 139.5)"><g ><g><path d="M 397.117999999999 0 C 194.027999999999 0 206.708999999999 88.532 206.708999999999 88.532 L 206.934 180.255 L 400.739999999999 180.255 L 400.739999999999 207.792 L 129.958 207.792 C 129.958 207.792 0 192.976 0 398.963 C 0 604.957 113.43 597.650999999999 113.43 597.650999999999 L 181.125 597.650999999999 L 181.125 502.061999999999 C 181.125 502.061999999999 177.475 388.039 292.743999999999 388.039 L 484.964999999999 388.039 C 484.964999999999 388.039 592.958999999999 389.793 592.958999999999 283.121 L 592.958999999999 106.743 C 592.958999999999 106.743 609.360999999999 0 397.117999999999 0 Z M 290.253999999999 61.681 C 299.502999999999 61.673 308.376 65.363 314.916999999999 71.937 C 321.456999999999 78.512 325.127999999999 87.431 325.118999999999 96.729 C 325.127999999999 106.027 321.456999999999 114.946 314.916999999999 121.521 C 308.376 128.095 299.502999999999 131.785 290.253999999999 131.777 C 281.004999999999 131.785 272.132 128.095 265.591 121.521 C 259.051 114.946 255.379999999999 106.027 255.388999999999 96.729 C 255.379999999999 87.431 259.051 78.512 265.591 71.937 C 272.132 65.363 281.004999999999 61.673 290.253999999999 61.681 Z" fill="url(#L520481000387EB8100366994.grad)" fill-opacity="1" stroke="none" stroke-width="1"/></g><g transform="translate(206.747 202.316)"><path d="M 196.138795548179 597.684041263679 C 399.227795548178 597.684041263679 386.546795548178 509.151041263678 386.546795548178 509.151041263678 L 386.321795548178 417.432041263678 L 192.513795548179 417.432041263678 L 192.513795548179 389.896041263678 L 463.294795548178 389.896041263678 C 463.294795548178 389.896041263678 593.252795548177 404.711041263678 593.252795548177 198.717041263678 C 593.252795548177 -7.272958736322 479.822795548177 0.032041263678 479.822795548177 0.032041263678 L 412.127795548178 0.032041263678 L 412.127795548178 95.618041263678 C 412.127795548178 95.618041263678 415.776795548178 209.641041263678 300.507795548179 209.641041263678 L 108.288795548179 209.641041263678 C 108.288795548179 209.641041263678 0.293795548179 207.887041263678 0.293795548179 314.564041263678 L 0.293795548179 490.944041263679 C 0.293795548179 490.944041263679 -16.105204451821 597.684041263679 196.134795548179 597.684041263679 Z M 303.001795548178 536.008041263678 C 293.752795548179 536.017041263678 284.879795548179 532.327041263679 278.339795548179 525.752041263679 C 271.799795548179 519.178041263678 268.128795548179 510.259041263679 268.136795548179 500.961041263679 C 268.127795548179 491.662041263679 271.798795548179 482.742041263678 278.338795548179 476.167041263679 C 284.878795548179 469.592041263679 293.752795548179 465.902041263679 303.001795548178 465.910041263679 C 312.250795548178 465.902041263679 321.123795548178 469.591041263679 327.664795548178 476.166041263678 C 334.204795548178 482.740041263679 337.875795548178 491.660041263678 337.866795548178 500.958041263679 C 337.875795548178 510.255041263679 334.204795548178 519.175041263679 327.664795548178 525.749041263679 C 321.123795548178 532.324041263679 312.250795548178 536.014041263679 303.001795548178 536.005041263679 Z" fill="url(#L500501000FFE052100FFC331.grad)" fill-opacity="1" stroke="none" stroke-width="1"/></g></g></g></svg>