<svg xmlns="http://www.w3.org/2000/svg" xmlns:xlink="http://www.w3.org/1999/xlink" xmlns:v="http://vecta.io" width="1920" height="1080" viewBox="0 0 1920 1080"><style><![CDATA[svg{stroke:#000;stroke-linecap:round;stroke-linejoin:round;fill:#fff;fill-rule:evenodd;font-family:Roboto;font-size:14px;text-anchor:middle}svg text{paint-order:stroke;white-space:pre}svg .Text\.cls{stroke:none}]]></style><defs><linearGradient id="L050100500ff6f00100ffa800.grad" x1="0.00%" y1="50.00%" x2="100.00%" y2="50.00%"><stop offset="0%" stop-color="#ff6f00"/><stop offset="100%" stop-color="#ffa800"/></linearGradient><clipPath id="kz4g8bbzrk.clip"><path d="M 151.792006737065 87.604471477602 L 0 0 L 0 360.000010074103 L 60.716802694826 324.410576049462 L 60.716802694826 223.117892849389 L 106.591637934038 249.809863935101 L 105.917171497853 180.684352963514 L 60.716802694826 153.992381877802 L 60.716802694826 113.612199069619 L 151.792006737065 167.680593600273 Z" stroke="none" stroke-linejoin="miter" stroke-linecap="butt" fill="none" fill-rule="nonzero" transform="translate(179.451718815394 1.368904718461)"/></clipPath><clipPath id="kz4g8bc0rm.clip"><path d="M 0 87.604471477602 L 151.792006737065 0 L 151.792006737065 360.000010074103 L 91.075204042239 324.410576049462 L 91.075204042239 113.612199069619 L 0 167.680593600273 Z" stroke="none" stroke-linejoin="miter" stroke-linecap="butt" fill="none" fill-rule="nonzero" transform="translate(16.191312090155 1.368904718461)"/></clipPath></defs><g transform="translate(-0.5 379.5)"><g ><g transform="translate(165.284624157657 0)"><path d="M 0 0 L 372.39604828426 0 L 372.39604828426 362.053357020232 L 0 362.053357020232 L 0 0 Z" stroke="none" stroke-linejoin="miter" stroke-linecap="butt" fill="url(#L050100500ff6f00100ffa800.grad)" fill-rule="nonzero" transform="translate(-179.451712952021 -1.368904680154)" clip-path="url(#kz4g8bbzrk.clip)"/></g><g><path d="M 0 0 L 372.396460046418 0 L 372.396460046418 362.053357020232 L 0 362.053357020232 L 0 0 Z" stroke="none" stroke-linejoin="miter" stroke-linecap="butt" fill="url(#L050100500ff6f00100ffa800.grad)" fill-rule="nonzero" transform="translate(-16.191311561123 -1.368904680154)" clip-path="url(#kz4g8bc0rm.clip)"/><defs><clipPath><path d="M 0 87.604471477602 L 151.792006737065 0 L 151.792006737065 360.000010074103 L 91.075204042239 324.410576049462 L 91.075204042239 113.612199069619 L 0 167.680593600273 Z" stroke="none" stroke-linejoin="miter" stroke-linecap="butt" fill="none" fill-rule="nonzero" transform="translate(16.191312090155 1.368904718461)"/></clipPath></defs></g><g transform="translate(418.945760200871 80.760363356399)"><path d="M 172.705813524071 30.798475513708 L 105.242701622986 30.798475513708 L 105.242701622986 220.380286110964 L 67.463111901084 220.380286110964 L 67.463111901084 30.798475513708 L 0 30.798475513708 L 0 0 L 172.705813524071 0 L 172.705813524071 30.798475513708 Z" stroke="none" stroke-linejoin="miter" stroke-linecap="butt" fill="#425066" fill-rule="nonzero"/></g><g transform="translate(559.269362364852 80.076119881852)"><path d="M 77.582578686247 223.802130080292 C 54.644955935015 223.802130080292 35.755366955143 216.273572070501 21.587866398621 201.901117256528 C 7.420777604256 187.528453577025 0 167.680588907964 0 143.041766723892 L 0 138.250809208881 C 0 123.193902054831 2.698277418749 108.136786035251 9.444588608857 94.448574695825 C 15.516433384818 82.129268036554 24.286555579527 71.863109531985 35.755366955143 64.334551522195 C 47.224178330759 56.805993512405 60.041922534671 53.383940677548 73.534544914887 53.383940677548 C 95.797289489814 53.383940677548 112.663067465085 60.228046347261 124.806757017006 74.600710026764 C 136.95003480677 88.973373706267 143.021467820573 108.821238375328 143.021467820573 134.828756374025 L 143.021467820573 149.885872393605 L 37.104711545596 149.885872393605 C 37.779177959744 162.205179052876 42.501678145252 173.155789897522 50.597333925813 182.053043721937 C 58.692577944217 190.266054071805 68.81204472938 194.372559246738 80.280856104996 193.688106906661 C 96.472167666119 194.372559246738 111.314134636789 186.159548896871 120.758723245647 173.155789897522 L 140.323190401824 192.319202226507 C 133.576879211716 201.901117256528 124.806757017006 210.113918740866 114.687290231843 214.904876255877 C 102.543600679922 221.74898192559 90.400322890159 224.486582420369 77.582578686247 223.802130080292 Z M 73.534544914887 83.497963851179 C 64.08995630603 82.813511511102 55.319422349163 86.920016686035 49.24798933536 93.764122355748 C 42.501678145252 101.977132705615 38.453644373892 112.243291210184 37.779177959744 123.193902054831 L 107.26610086543 123.193902054831 L 107.26610086543 120.456092694522 C 106.591634451282 108.136786035251 103.218478856228 98.555079870759 97.821512256572 92.395426541123 C 91.075201066464 86.920016686035 82.304667109597 82.813511511102 73.534544914887 83.497963851179 Z M 204.413146707854 56.805993512405 L 205.762491298307 75.969405841389 C 217.230890911766 61.596951027415 234.771547063342 53.383940677548 252.986669629066 54.068393017625 C 286.718225579609 54.068393017625 303.58400355488 73.916257686687 304.258469969028 112.927743550262 L 304.258469969028 221.064529585512 L 267.828224837579 221.064529585512 L 267.828224837579 114.980891704964 C 267.828224837579 104.714733200394 265.804413832978 97.186175190604 261.081913647471 91.710974201046 C 256.359825224121 86.920016686035 249.613514034012 84.182416191256 239.49404724885 84.182416191256 C 225.326546692327 83.497963851179 212.508802488416 91.710974201046 206.436957712455 104.030280860317 L 206.436957712455 220.380077245435 L 170.006712581007 220.380077245435 L 170.006712581007 56.121541172327 L 204.413146707854 56.805993512405 Z M 421.644449381778 176.577842732379 C 421.644449381778 170.418189402743 418.945760200871 164.942779547655 413.548793601216 161.520726712799 C 405.453137820654 156.729978063318 396.008137449639 153.992377568539 387.23801525493 152.623472888384 C 376.44408205562 150.570324733682 366.324615270457 147.148271898825 356.205148485294 142.357314383815 C 337.99002591957 133.4600605594 329.219903724861 120.456092694522 329.219903724861 104.030280860317 C 329.219903724861 90.342069520892 335.966214914969 76.653858181466 346.760148114279 68.441056697128 C 358.228959489895 58.859141667107 373.745392874713 54.068393017625 391.28604902629 54.068393017625 C 410.850104420309 54.068393017625 426.366537805127 58.859141667107 437.835349180743 68.441056697128 C 449.304160556359 77.338310521543 456.050471746468 91.710974201046 455.37600533232 106.083637880549 L 418.945760200871 106.083637880549 C 418.945760200871 99.239532210836 416.247071019965 93.079670015671 410.850104420309 88.288921366189 C 404.778671406506 83.497963851179 398.032360216398 80.760363356399 389.936704435836 81.444815696477 C 383.190393245728 81.444815696477 376.44408205562 82.813511511102 370.372237279659 86.920016686035 C 365.649737094152 90.342069520892 362.951459675403 95.817479375979 362.951459675403 101.977132705615 C 362.951459675403 107.452333695174 365.649737094152 112.243291210184 369.697770865511 114.980891704964 C 374.420271051019 118.40294453982 383.864859659876 121.140545034599 398.032360216398 124.562597869456 C 409.500759829856 126.615954889687 420.969571205472 130.722251199091 431.76391616694 136.197661054179 C 439.184693771196 139.619713889036 445.256538547157 145.094914878594 449.978626970507 151.939020548307 C 454.026660741866 158.78312621802 456.050471746468 166.31168422781 456.050471746468 174.524694577677 C 456.050471746468 188.89714939165 449.304160556359 201.901117256528 437.835349180743 210.113918740866 C 425.692071390979 219.01138143081 410.175638006162 223.802130080292 390.611170849984 223.802130080292 C 378.467893060221 223.802130080292 366.324615270457 221.74898192559 355.530270308989 216.273572070501 C 346.085681700132 212.167275761097 337.315559505422 205.323170091385 331.243714729462 196.42570740144 C 325.846748129806 188.212905917102 322.473592534752 178.630990887081 322.473592534752 169.049284722589 L 357.554493075748 169.049284722589 C 357.554493075748 176.577842732379 360.927648670802 184.106400742169 366.999081684605 188.89714939165 C 373.745392874713 193.688106906661 382.515515069423 196.42570740144 390.611170849984 195.741255061363 C 400.056171220999 195.741255061363 407.476948825255 193.688106906661 412.199449010763 190.266054071805 C 418.945760200871 187.528453577025 421.644449381778 182.053043721937 421.644449381778 176.577842732379 Z M 476.289405316793 137.566356868804 C 476.289405316793 122.509449714754 478.988094497699 107.452333695174 485.734405687808 94.448574695825 C 491.805838701611 82.129268036554 500.57596089632 71.863109531985 512.044772271936 65.019003862272 C 524.1880500617 58.174898192559 537.680672441917 54.068393017625 551.173294822134 54.752845357703 C 572.761984745069 54.752845357703 590.976695548636 61.596951027415 604.469317928853 75.969405841389 C 617.96194030907 90.342069520892 625.382717913326 108.821238375328 626.732474265937 132.775608219323 L 626.732474265937 141.672862043738 C 626.732474265937 156.729978063318 624.033785085031 171.10264174282 617.287473894922 184.790853082246 C 611.89009553311 197.110159741517 602.445095162095 207.376318246087 590.976695548636 214.220423915799 C 578.833005996715 221.064529585512 565.340383616498 225.171034760446 551.173294822134 224.486582420369 C 528.236083833059 224.486582420369 510.020961267335 216.958024410579 496.528338887118 201.216664916451 C 483.035716506902 186.159548896871 476.289405316793 165.627231887732 475.614938902645 139.619713889036 L 476.289405316793 137.566356868804 Z M 512.044772271936 140.988409703661 C 512.044772271936 158.098673877943 515.41792786699 171.10264174282 522.164239057099 180.684347907312 C 534.307516846862 196.42570740144 556.570673183946 199.847760236297 572.761984745069 187.528453577025 C 575.459850401661 185.475096556794 577.484073168419 183.421948402092 579.508295935178 180.684347907312 C 586.254607125286 171.10264174282 589.627762720341 156.729978063318 589.627762720341 138.250809208881 C 589.627762720341 121.824997374676 586.254607125286 108.821238375328 578.833005996715 98.555079870759 C 567.364606383257 82.813511511102 545.10186180833 79.391458676245 528.910550247207 91.026521860969 C 526.212272828459 93.079670015671 523.513583647552 95.817479375979 521.489772642951 97.870627530682 C 516.092806043296 107.452333695174 512.044772271936 121.824997374676 512.044772271936 140.988409703661 Z M 735.34791972182 91.026521860969 C 730.625007774154 90.342069520892 725.228452936658 89.657617180814 720.505540988992 89.657617180814 C 703.639763013721 89.657617180814 692.845829814411 95.817479375979 686.773985038451 108.821238375328 L 686.773985038451 221.064529585512 L 650.344563431317 221.064529585512 L 650.344563431317 56.805993512405 L 684.750585796007 56.805993512405 L 685.425052210155 75.285162366841 C 694.195586167022 60.912498687338 706.338452194628 54.068393017625 721.855297341604 54.068393017625 C 725.902919350805 54.068393017625 730.625007774154 54.752845357703 734.673453307672 56.121541172327 L 735.34791972182 91.026521860969 Z M 887.13992149926 127.300198364235 L 799.437876027851 127.300198364235 L 799.437876027851 221.064529585512 L 761.658698068106 221.064529585512 L 761.658698068106 0.684243474548 L 899.958077465329 0.684243474548 L 899.958077465329 31.482718988255 L 799.437876027851 31.482718988255 L 799.437876027851 97.186175190604 L 887.13992149926 97.186175190604 L 887.13992149926 127.300198364235 Z M 959.325121823695 221.064529585512 L 922.894876692246 221.064529585512 L 922.894876692246 0 L 959.325121823695 0 L 959.325121823695 221.064529585512 Z M 985.63590016998 137.566356868804 C 985.63590016998 122.509449714754 988.334589350886 107.452333695174 995.080900540995 94.448574695825 C 1001.152745316955 82.129268036554 1009.922455749508 71.863109531985 1021.39167888728 65.019003862272 C 1033.534544914887 58.174898192559 1047.027167295104 54.068393017625 1060.519789675321 54.752845357703 C 1082.108479598257 54.752845357703 1100.323190401824 61.596951027415 1113.815812782041 75.969405841389 C 1127.308435162257 90.342069520892 1134.729212766514 108.821238375328 1136.078969119124 132.775608219323 L 1136.078969119124 141.672862043738 C 1136.078969119124 156.729978063318 1133.380279938218 171.10264174282 1127.308435162257 184.790853082246 C 1121.911056800444 197.110159741517 1112.466879953744 207.376318246087 1100.99765681597 214.220423915799 C 1088.854790788364 221.064529585512 1075.362168408149 225.171034760446 1061.194256089469 224.486582420369 C 1038.257456862553 224.486582420369 1020.04192253467 216.958024410579 1006.549300154454 201.216664916451 C 993.056677774236 186.159548896871 985.63590016998 165.627231887732 985.63590016998 139.619713889036 L 985.63590016998 137.566356868804 Z M 1022.066145301429 140.988409703661 C 1022.066145301429 158.098673877943 1025.439300896484 171.10264174282 1032.185612086592 180.684347907312 C 1038.9319232767 190.266054071805 1049.72585647601 195.741255061363 1061.194256089469 195.057011586815 C 1072.663479227242 195.741255061363 1083.457412426552 190.266054071805 1089.529257202513 180.684347907312 C 1096.275568392621 171.10264174282 1099.648723987675 156.729978063318 1099.648723987675 138.250809208881 C 1099.648723987675 121.824997374676 1096.275568392621 108.821238375328 1088.854790788364 98.555079870759 C 1077.385567650591 82.813511511102 1055.123234837823 79.391458676245 1038.9319232767 91.026521860969 C 1036.233234095793 93.079670015671 1033.534544914887 95.817479375979 1031.511145672444 97.870627530682 C 1025.439300896484 107.452333695174 1022.066145301429 121.824997374676 1022.066145301429 140.988409703661 Z M 1300.01383692417 170.418189402743 L 1325.650148856308 57.490445852482 L 1360.730637635145 57.490445852482 L 1316.879614899442 221.74898192559 L 1287.195680958101 221.74898192559 L 1252.789658593411 108.821238375328 L 1218.383636228721 221.74898192559 L 1188.699702287381 221.74898192559 L 1144.174213137528 57.490445852482 L 1179.929991854829 57.490445852482 L 1206.239946676799 169.733737062666 L 1239.297036213194 57.490445852482 L 1266.956747387777 57.490445852482 L 1300.01383692417 170.418189402743 Z" stroke="none" stroke-linejoin="miter" stroke-linecap="butt" fill="#425066" fill-rule="nonzero"/></g></g></g></svg>