<svg xmlns="http://www.w3.org/2000/svg" viewBox="0 -0.5 8 8" shape-rendering="crispEdges">
<metadata>Made with Pixels to Svg https://codepen.io/shshaw/pen/XbxvNj</metadata>
<path stroke="#246329" d="M0 0h8M0 1h1M7 1h1M0 2h8" />
<path stroke="#ffffff" d="M1 1h6" />
<path stroke="#ff0000" d="M0 3h1M2 3h1M5 3h1M7 3h1" />
<path stroke="#704508" d="M1 3h1" />
<path stroke="#000000" d="M3 3h2M0 4h8M0 5h1M1 6h1M6 6h2M0 7h8" />
<path stroke="#4d4909" d="M6 3h1" />
<path stroke="#ebed0e" d="M1 5h1M4 5h1" />
<path stroke="#f0b80b" d="M2 5h1" />
<path stroke="#f29508" d="M3 5h1" />
<path stroke="#769299" d="M5 5h1" />
<path stroke="#94d899" d="M6 5h2" />
<path stroke="#030017" d="M0 6h1" />
<path stroke="#ece50e" d="M2 6h1" />
<path stroke="#f57307" d="M3 6h1" />
<path stroke="#f48308" d="M4 6h1" />
<path stroke="#efbe0b" d="M5 6h1" />
</svg>